<svg viewBox="0 0 70 70" fill="none" xmlns="http://www.w3.org/2000/svg">
<path fill-rule="evenodd" clip-rule="evenodd" d="M0 8.07692C0 3.61616 3.61616 0 8.07692 0H18.8462C29.2546 0 37.6923 8.43771 37.6923 18.8462C37.6923 29.2546 29.2546 37.6923 18.8462 37.6923C8.43771 37.6923 0 29.2546 0 18.8462V8.07692ZM8.07692 5.38462C6.59 5.38462 5.38462 6.59 5.38462 8.07692V18.8462C5.38462 26.2808 11.4116 32.3077 18.8462 32.3077C26.2808 32.3077 32.3077 26.2808 32.3077 18.8462C32.3077 11.4116 26.2808 5.38462 18.8462 5.38462H8.07692Z" fill="inherit"/>
<path fill-rule="evenodd" clip-rule="evenodd" d="M0 51.1538C0 40.7454 8.43771 32.3077 18.8462 32.3077C29.2546 32.3077 37.6923 40.7454 37.6923 51.1538C37.6923 61.5623 29.2546 70 18.8462 70H8.07692C3.61616 70 0 66.3838 0 61.9231V51.1538ZM18.8462 37.6923C11.4116 37.6923 5.38462 43.7192 5.38462 51.1538V61.9231C5.38462 63.41 6.59 64.6154 8.07692 64.6154H18.8462C26.2808 64.6154 32.3077 58.5884 32.3077 51.1538C32.3077 43.7192 26.2808 37.6923 18.8462 37.6923Z" fill="inherit"/>
<path fill-rule="evenodd" clip-rule="evenodd" d="M32.3077 18.8462C32.3077 8.43771 40.7455 0 51.1539 0H61.9231C66.3839 0 70 3.61616 70 8.07692V18.8462C70 29.2546 61.5623 37.6923 51.1539 37.6923C40.7455 37.6923 32.3077 29.2546 32.3077 18.8462ZM51.1539 5.38462C43.7193 5.38462 37.6924 11.4116 37.6924 18.8462C37.6924 26.2808 43.7193 32.3077 51.1539 32.3077C58.5885 32.3077 64.6154 26.2808 64.6154 18.8462V8.07692C64.6154 6.59 63.41 5.38462 61.9231 5.38462H51.1539Z" fill="inherit"/>
<path fill-rule="evenodd" clip-rule="evenodd" d="M32.3077 51.1538C32.3077 40.7454 40.7455 32.3077 51.1539 32.3077C61.5623 32.3077 70 40.7454 70 51.1538V61.9231C70 66.3838 66.3839 70 61.9231 70H51.1539C40.7455 70 32.3077 61.5623 32.3077 51.1538ZM51.1539 37.6923C43.7193 37.6923 37.6924 43.7192 37.6924 51.1538C37.6924 58.5884 43.7193 64.6154 51.1539 64.6154H61.9231C63.41 64.6154 64.6154 63.41 64.6154 61.9231V51.1538C64.6154 43.7192 58.5885 37.6923 51.1539 37.6923Z" fill="inherit"/>
</svg>
