<svg xmlns="http://www.w3.org/2000/svg" viewBox="0 0 165.12 194.62"><defs><clipPath id="clip-path"><path fill="none" d="M110.93 10.55S34.41-13.54 7.31 60.28a118.69 118.69 0 0 0-7 36.25c-1.61 41 3 52.47 18.8 68.51 17.15 17.46 65.67 25.8 102.8 2.37s42.77-66.64 42.77-66.64 8.99-71.36-53.75-90.22Z"/></clipPath><style>.cls-27{fill:none}.cls-4{fill:#8c5aa8}.cls-6{fill:#562d8a}.cls-7{fill:#d14b75}.cls-9{fill:#9b68b8}.cls-10{fill:#bf6043}.cls-11{fill:#c43d67}.cls-12{fill:#d85b85}.cls-15{fill:#bc3b64}.cls-16{fill:#c34873}.cls-24{fill:#322c36}.cls-25{fill:#ab72cb}.cls-27{stroke:#8c5aa8;stroke-linecap:round;stroke-miterlimit:10}.cls-28{fill:#df8267}</style></defs><g id="Layer_2" data-name="Layer 2"><g id="Layer_10" data-name="Layer 10"><path fill="#c8c3e2" d="M110.93 10.55S34.41-13.54 7.31 60.28a118.69 118.69 0 0 0-7 36.25c-1.61 41 3 52.47 18.8 68.51 17.15 17.46 65.67 25.8 102.8 2.37s42.77-66.64 42.77-66.64 8.99-71.36-53.75-90.22Z"/><g clip-path="url(#clip-path)"><path d="m90 103.22 4.32 10s.15.63 1.23-.25a16.11 16.11 0 0 0 1.91-1.89l8.73 14.5-1.54 2.29s-5.15 10.54-10.4 10.41-14.12-20.41-14.12-20.41l-1.88-13.31Z" class="cls-4"/><path fill="#562d8b" d="m78.92 155.08.3 7.8-6.51 2.44-2.78-3.56 2.38-5.62 6.61-1.06z"/><path d="M32.93 173.93a66.43 66.43 0 0 1-12.16-7.2 2.83 2.83 0 0 1-.81-1c-1.47-2.88-2.86-5.8-3-9.11a31.05 31.05 0 0 1 3-15 1.63 1.63 0 0 1 1 .52 24.23 24.23 0 0 0 14.27 6c5.22.56 10.44 1.17 15.7 1.28.78 0 1.44.43 2.19.48.21.05 0-.07.15 0a27.89 27.89 0 0 1 7.79 5.8 34.09 34.09 0 0 1-1 5.48 1.42 1.42 0 0 1-.74 1c-1.22.3-2.41-.73-3.65-.08A8.09 8.09 0 0 1 52 162a9.09 9.09 0 0 0-5.33.74 22.93 22.93 0 0 0-10.42 8.05 7.56 7.56 0 0 1-3.32 3.14Z" class="cls-6"/><rect width="61.51" height="32.9" x="33.68" y="161.37" class="cls-7" rx="13.92" transform="rotate(1.21 64.3822 177.3765)"/><rect width="42.57" height="57.28" x="99.32" y="134.64" fill="#cd6b4d" rx="8.41" transform="rotate(2.6 120.5352 163.0386)"/><rect width="13.9" height="18.58" x="51.46" y="65.7" class="cls-4" rx="6.55" transform="rotate(13.61 58.4168 75.0054)"/><rect width="13.9" height="18.58" x="115.77" y="121.31" class="cls-4" rx="6.55"/><rect width="13.9" height="18.58" x="58.41" y="149.58" class="cls-4" rx="6.55"/><path d="M23.59 128.89c-19.55-2.43-28-6.34-11.88-23.8 1.16-1.18 3.24-3.33 4.32-4.68 2.47-2 5.64 4.34 7.68 5.89 1.63 1.17 1.28 2.78.14 4.12-2.93 3.71 1.48 5.55 4.72 4 5.71.86 11.28 2.84 16.94 4.14 3.25 0 2.5 4.86.15 5.27-5.12-1.85-7.6 4.13-8.68 7.88-4.51-.01-9.5-.58-13.39-2.82Z" class="cls-9"/><path d="M111.69 135.87c.55 7.6-19.17 41.63-5.91 41.42-3 2-6.57 2.44-9.73 4-2.57-4.66-4.51-9.66-8.84-12.9 1.19-8.79 12.96-42.39 24.48-32.52Z" class="cls-10"/><path d="M26.83 173.35c9.94-17.72 37.55-17.78 24.6 7.23a79.58 79.58 0 0 1-24.6-7.23Z" class="cls-11"/><path d="m30 79.37 3.51-1.73a6.88 6.88 0 0 1 2.57 1.88c3.24 3.21 7.29 4.86 11.58 6C56.17 87.68 64.61 87 73 85a1 1 0 0 1 .81.63 19.73 19.73 0 0 1 2.11 8.55 1.17 1.17 0 0 1-.24.47 9.9 9.9 0 0 1-4.22.91c-3.61.12-7.07 1.42-10.69 1.23a41.82 41.82 0 0 1-14.52-3.25A30.89 30.89 0 0 0 42.06 92c-4.69-1.28-8.72-3.87-12.74-6.45-2.13-1.35-2.14-3.19-.31-4.92a3.26 3.26 0 0 0 .99-1.26Z" class="cls-7"/><path d="M30 79.37c.3.06.56.18.29.52s-.67.69-1 1c-1.63 1.71-1.53 2.9.46 4.16a82.49 82.49 0 0 0 14 6.91 77.37 77.37 0 0 0 14.36 4.06 13.73 13.73 0 0 0 5.78 0c3.61-.93 7.37-.65 11-1.62.22-.06.53-.09.77-.15a7.94 7.94 0 0 1 .69 5.48 3.83 3.83 0 0 1-2.63 1.67 46.48 46.48 0 0 1-25.38-.64c-1.43-.44-3-.58-4.21-1.5-.75-1 .1-1.67.48-2.45s1.48-1.73.78-2.14c-1-.57-1.26.93-1.79 1.56s-.94 1.82-2 2.25a1.23 1.23 0 0 1-.63.07c-6.5-1.48-13-3-17.62-8.4a16.38 16.38 0 0 1-2.69-3.4A83.42 83.42 0 0 1 30 79.37Z" class="cls-12"/><path d="m23.22 130.41.33-.72a4.55 4.55 0 0 1 1.72.34c4.74 2.32 9.86 3.56 14.85 5.16a1.75 1.75 0 0 1 .89.67 10.51 10.51 0 0 0 5.32 3.72 4.12 4.12 0 0 1 2.74 2.72 29.18 29.18 0 0 0 1.49 3.21 2.32 2.32 0 0 1 .32 2 1.68 1.68 0 0 1-1.57.63c-8-.54-16.07-1.15-23.66-4.23a24.59 24.59 0 0 1-3.18-1.55 3.69 3.69 0 0 1-1.85-2.14 20.68 20.68 0 0 1 2.6-9.81Z" class="cls-7"/><path d="M136.05 161.49c-.6-3.7-6.93-25.42-3.32-25.05 7.36-3.34 12.79 4.19 16 9.85-2.96 5.71-7.88 10.79-12.68 15.2Z" class="cls-10"/><path d="M82.77 181.33c.16-6.31-1.87-14.43-5.18-19.69a17.91 17.91 0 0 1 20 16.71 58.51 58.51 0 0 1-14.82 2.98Z" class="cls-11"/><path d="M20.65 86.74c1.42.35 1.93 1.65 2.78 2.62a21.88 21.88 0 0 0 11.76 7.07c2.18.5 4.27 1.38 6.51 1.69a.71.71 0 0 1 .17.42 21.86 21.86 0 0 1-8.13 8.66c-.18.12-.38.21-.56.32a1.44 1.44 0 0 1-.93.18c-5.1-2.21-9.26-5.79-13.5-9.26a22 22 0 0 1-2.88-2.57 3.29 3.29 0 0 1-1-2.93 25.11 25.11 0 0 1 5.78-6.2Z" class="cls-7"/><path d="M74.21 85.18c-.26.86-2.21.85-2.86 1a60 60 0 0 1-16 1.27c-6.42-.48-12.63-1.93-17.92-5.86-1.43-1.11-3.03-2.19-3.88-3.95 1.84-1.89 4.31-2.58 6.67-3.44a12 12 0 0 1 2.35-.35 42 42 0 0 1 4.34-.15c.91-.09 1.12.6 1.16 1.24.44 6.6 6.23 8.89 10.85 9.58a4.62 4.62 0 0 0 2.54-.32c2.66-1.12 5.56-1.78 7.73-3.89a1.61 1.61 0 0 1 1.17-.47c1.64.9 4.24 3.72 3.85 5.34ZM20.67 140.11c4.68 4 10.54 5 16.31 6.15 4 .79 8.08.76 12.11 1.26a1.86 1.86 0 0 0 1.68-.31 3.37 3.37 0 0 1 2.59 3.1c-4.73-.11-9.43-.56-14.14-1-3.8-.36-7.62-.61-11.22-2.05a22.42 22.42 0 0 1-6.71-3.8c-.55-.49-1.23-.9-1.29-1.76l.43-1.5c.02-.2.1-.2.24-.09Z" class="cls-12"/><path d="M51.61 73.52c-.17 1.11-.38 2.22-.49 3.34a3.66 3.66 0 0 0 .88 2.87c2.1 2.29 4.52 3.67 7.85 3s4.52-3.11 5.22-6c.08-.31.16-.62.23-.93a4.35 4.35 0 0 1 2.59.36c-.1.32-.5.36-.64.7 1.26.73 2.6 1.37 3.31 2.76a.55.55 0 0 1-.11.43c-2.36 2.65-5.6 3.8-8.81 4.75-4 1.17-7.62-.36-10.73-2.87a8 8 0 0 1-3.4-6.79c.05-.9-.34-1.25-1.23-1.23h-3.71c1.4-.55 2.86-.08 4.28-.32a11.77 11.77 0 0 0 1.8-.53 2.59 2.59 0 0 1 2.96.46Z" class="cls-7"/><path d="M14.86 92.94c3.71 6.78 11.46 10.19 17.47 14.55-3.99 9.02-23.58-9.73-17.47-14.55Z" class="cls-12"/><path fill="#d85b86" d="M40.12 135.59A60.45 60.45 0 0 1 26 130.93c-.81-.4-2-.05-2.43-1.24v-.8c4.52.91 9 2.13 13.58 2.52a12.83 12.83 0 0 0 2.67 1.53 2 2 0 0 1 .3 2.65Z"/><path fill="#a470c1" d="M145 107.74a9.16 9.16 0 0 1-9.58 14.51c-5.21 4.44-11.5 9.09-18.84 9-19 .41-25.17-22.49-17.87-37 .52-1.8 1.18-2.21 3-1.85 9.06 1.48 18.33-.12 27.05-2.63 7.67-.82 8.48 14.75 7.92 19.84 2.84-.68 4.53-6.88 8.32-1.87Z"/><path d="M145 107.74c-.48-.24-1-.47-1.43-.74a2.67 2.67 0 0 0-4 1c-.43.62-.81 1.28-1.28 1.86s-1.22 1.14-2.1.63a1.46 1.46 0 0 1-.59-2c2-6-.31-11.28-3.11-16.37-1.22-2.24-1.72-2.21-4.19-1.5a72.83 72.83 0 0 1-21.61 3 22.6 22.6 0 0 1-5.73-.77c-.81-.23-1.22 0-1.42.77-.32 1.19-.69 2.37-.94 3.58a1.76 1.76 0 0 1-1.72 1.6c-.91-.21-1.26-.94-1.57-1.7A38.36 38.36 0 0 1 92 82.92c0-1.61.85-2.37 2.45-2a12.36 12.36 0 0 1 3 1.29c1 .48 1.56.57 1.57-.83a14.15 14.15 0 0 1 .39-2.88 2.65 2.65 0 0 1 1.84-2.25 2.35 2.35 0 0 1 2.5 1.1c.24.27.55.49 1 .87.27-1.24.47-2.33.75-3.39.21-.8.57-1.58 1.5-1.73s1.46.51 1.88 1.23a8.44 8.44 0 0 0 1.71 2.14 1.52 1.52 0 0 1 .87.9 2.67 2.67 0 0 0 3.38 1.71 2.15 2.15 0 0 1 2.6 1.34 7.81 7.81 0 0 0 5.92 4.24 20.41 20.41 0 0 0 8.31 0 6.37 6.37 0 0 0 4.1-2.63 2.46 2.46 0 0 1 2-1.24 11.07 11.07 0 0 1 5.86 4.5 26.32 26.32 0 0 1 4.37 17.82 5.62 5.62 0 0 1-3 4.63Z" class="cls-6"/><path d="M137.68 80.73c-3.24 5-9.1 5.67-14.59 4.49-5.89-.86-5.16-5-7.61-5.72-3.39.58-4 .2-4.93-3.06 1-4.65 11.6-7.38 15.69-6 4.48 1.31 11.87 3.45 11.08 9.36-.07.42-.13.78.36.93Z" class="cls-9"/><path d="m88.93 94.87 1.51 2.62a9.63 9.63 0 0 1 1 2.16c.52 1.66 1.38 2.61 0 3.72-1 .69-6.45 1.76-7.45 2a22.37 22.37 0 0 1-6.68.45c-.6 0-1.32.52-1.77.07-.7-1.6-.13-4.25.37-5.87a3 3 0 0 1 2-1.55 73.1 73.1 0 0 0 8.84-3.88 1.57 1.57 0 0 1 2.18.28ZM75.63 94.24a46.83 46.83 0 0 0-2.26-8.39c.16-.21.22-.55.46-.64 2.32-.8 4.5-2 6.9-2.57 1 .61 4.77 6 5.09 6.87.5 1.44-1.09 1-2.3 2a15.5 15.5 0 0 1-7 3 1.26 1.26 0 0 1-.89-.27Z" class="cls-15"/><path d="M75.63 94.24c2.65-.76 9.17-3.06 10.19-4.73a33.65 33.65 0 0 1 3.11 5.36c-4.16.28-9.54 5.23-13 5.2.01-1.84-.5-3.98-.3-5.83ZM80.73 82.64c-2.07 2-4.87 2.23-7.36 3.21A34.06 34.06 0 0 0 70.45 80a6.81 6.81 0 0 1-.19-3.3c4.16.3 7.65 3.07 10.47 5.94Z" class="cls-16"/><path fill="#bd3e67" d="M72 77c.26.77-1.15 2-1.55 3-1.6-.84-2.87-3.11-4.85-3.43-.31 0-.61-.2-.51-.53a.75.75 0 0 1 .72-.43c.55 0 1.11 0 1.66-.06A26.59 26.59 0 0 1 72 77Z"/><path d="m39.39 117.56 13.15 3.45-7.8 12-8.25-1.69 2.9-13.76z" class="cls-9"/><path d="M54.61 111.68c-2.83 1.48-4.63 4-6.37 6.51a2.76 2.76 0 0 1-2.76.2c-3.77-1.06-7.68-1.47-11.42-2.62a1.13 1.13 0 0 0-1.07 0l-1.28-.3c.16-1.78 3.88-6.6 5.49-7.15 2.53.42 5 1.32 7.53 1.53s5.28.8 8 .83c.72.05 1.63-.09 1.88 1Z" class="cls-12"/><path d="M36.85 108.79c-1.94 2.06-3.32 4.57-5.15 6.73l-3.23-.6c-.31-.25-.79-.27-1-.69s-.11-1-.31-1.42a9.22 9.22 0 0 0-1-2.29c-.3-.44-.5-.94 0-1.42 2.33.56 4.2-.66 6.14-1.61l.64-.32a5.73 5.73 0 0 1 3.93 1.16.38.38 0 0 1-.02.46Z" class="cls-16"/><path fill="#8e5baa" d="M48.72 125.82a1.67 1.67 0 0 1-.28 2c-1.38-1.26-3.76-.66-4.89 1.34-.89 1.58-1.88 3.16-1.35 5.15.07.26-.15.61-.24.91-1.55.6-1.86-.6-2.29-1.6-.71-1.64 0-3 .8-4.4a9.65 9.65 0 0 1 3.2-3.34c1.7-1.17 3.33-1.37 5.05-.06Z"/><path fill="#8d5aa8" d="M28.47 114.92c-6.25 2.26-7.88-2.07-3.9-6.78 2.51 1.33 3.77 5.71 3.9 6.78Z"/><path fill="#d04c77" d="M33 115.82c.4-1 1.12-.35 1.62-.22 4.49 1.15 9.12 1.56 13.63 2.59l-.74 1.58Z"/><path d="M36.85 108.79v-.32a1.27 1.27 0 0 1 .22-1.07c2.12-2.78 4-5.77 6.23-8.47a1.06 1.06 0 0 1 .67-.17c5.18 1.55 10.34 3 15.82 3.34 4.84.3 9.46-.56 14.12-1.44a4.26 4.26 0 0 0 2-.59c0 .11 0-.12 0 0v6.3c-2.92 1-6-.12-9 0a18.4 18.4 0 0 0-11.76 4.94 2.94 2.94 0 0 1-.55.32c-1.83-.72-3.79-.27-5.69-.55-4.05-.56-8.15-.9-12.06-2.29Z" class="cls-7"/><path fill="#c44873" d="m44 98.76-.33.33c-.71 0-1.47.09-1.94-.65v-.32c.77-1.22 1.54-2.45 2.33-3.66.46-.7 1-1.13 1.89-.61s.43 1.22.07 1.81c-.68 1.05-1.38 2.07-2.02 3.1Z"/><path fill="#bd3b64" d="M41.7 98.44c.7 0 1.5-.18 1.94.65-2.13 3.22-4.35 6.38-6.79 9.38-1.29-.44-2.78-.28-3.88-1.3a33 33 0 0 0 8.73-8.73Z"/><path fill="#352e3a" d="M112.15 118.57c.62.12 1.13.21 1.64.33a10.82 10.82 0 0 0 9.9-2.49c.35-.28.72-.9 1.19-.54s.09 1-.18 1.43a3.12 3.12 0 0 1-.84 1c-3 2-6.27 3-9.91 2.11-.86-.26-1.73-.58-1.8-1.84Z"/><circle cx="102.78" cy="103.59" r="3.41" class="cls-24"/><circle cx="122.16" cy="104.59" r="3.41" class="cls-24"/><path d="m23.59 128.89 15.82 3a11 11 0 0 0 .71 3.72l-14.22-5-2-.89Z" class="cls-12"/><circle cx="68.39" cy="136.44" r="21.91" class="cls-25"/><path fill="#332d38" d="M67.4 150.2c-3.47 0-6.41-2.71-6.42-5.46 0-.59 0-1.33.68-1.46s.89.61 1.06 1.16c1.33 4.22 5.07 5.51 8.82 3 .58-.39 1.1-.86 1.66-1.28.29-.21.62-.57 1-.21s.15.8-.12 1.15a6.39 6.39 0 0 1-3.32 2.45c-1.25.35-2.54.5-3.36.65Z"/><rect width="18.64" height="18.25" x="40.01" y="126.74" class="cls-25" rx="8.6"/><rect width="15.34" height="15.02" x="81.2" y="129.15" class="cls-25" rx="7.08"/><circle cx="59.83" cy="129.15" r="3.41" class="cls-24"/><circle cx="79.22" cy="130.15" r="3.41" class="cls-24"/><path d="M90.48 129.13c.1 1.68-.55 10.36-2.58 6-.12-8.12-3.18-15.47-11.59-17.78-29.68-8.24-23.05 22.41-29.78 18.65-5-8.11-2.91-19.46 5.74-24.24 8.31-8.5 20.49-4.19 30.65-6.74 4.39-.59 5.62 19.63 7.56 24.11Z" class="cls-6"/><path d="M110.79 105.29c-.16.71-.28 1.31-.47 1.94a22.35 22.35 0 0 1-1.62 3.68 2.81 2.81 0 0 0-.22.47 1 1 0 0 0 .27.85c.61.57 1.19 1.17 1.83 1.69M69.93 132c.15.71.28 1.31.47 1.94a22.35 22.35 0 0 0 1.6 3.69c.09.16.15.34.22.47a1 1 0 0 1-.22.9c-.6.58-1.18 1.17-1.82 1.69" class="cls-27"/></g><path d="M83.44 59.15c1.18-3.29 2-6.69 2.94-10.06a2.54 2.54 0 0 1 1.42 0 3.45 3.45 0 0 0 1.91-.09c4.54-2.35 7-5.85 5.79-10.93a16.17 16.17 0 0 0-1.82-4.46c-.32-.53-.77-1.07-.43-1.78a5.83 5.83 0 0 1 4-.47 15.75 15.75 0 0 1 13.38 16.28 2.57 2.57 0 0 0 0 .48c0 .73-.43 1.73.15 2.14s1.32-.42 2-.78a1.56 1.56 0 0 1 1.81-.05 1.68 1.68 0 0 1 .63 1.7c-1 12.14-14.43 18.41-23.67 14.92-3.55-1.36-6.01-3.9-8.11-6.9Z" class="cls-28"/><path d="M92.92 30.52c1.91 2.79 3.3 5.74 3.18 9.24s-3.57 7.86-6.89 8.69a3.12 3.12 0 0 1-3.16-.65c-.69-1.84.23-3.58.38-5.36a46.61 46.61 0 0 0-.38-13.6 7.76 7.76 0 0 1 5.25 0Z" class="cls-28"/><circle cx="87.21" cy="41.87" r="10.68" class="cls-4"/><path d="M88.73 42.51a40.66 40.66 0 0 0-.46-6.11 49.81 49.81 0 0 0-1.64-6.74c-3.76-11-12.17-18.61-22-18.61-12.85 0-23.35 13.18-24 29.78a32.82 32.82 0 0 1-2.13-7.93c-.09-.59.22-1.36-.61-1.68s-1.36.28-1.86.69c-2.08 1.7-3 4.16-3.68 6.6-1.72 6.18 2.94 13.33 8.06 14.23a4.6 4.6 0 0 1 1.68.64C45.48 65.4 54.31 74 64.67 74c0 0 .72.08.77 0 12.93-.59 23.29-14.46 23.29-31.49Z" class="cls-9"/><path d="M71.51 39.73c.09 1.46.16 2.68.36 4A44.07 44.07 0 0 0 74 51.45a7 7 0 0 1 .3 1 2 2 0 0 1-.79 1.6c-1.35 1-2.68 2-4.1 2.82" class="cls-27"/><path d="M91 14.8c.74 2.45 1.74 4.84 1.9 7.45a18.88 18.88 0 0 1-.74 7.43c-.81.68-1.75.21-2.63.27s-1.6.06-2.4.15c-5 .62-9.77-.42-14.43-2-6.4-2.1-12.44-4.88-16.86-10.27-.53-.65-1.19-.9-1.5.22a33.59 33.59 0 0 1-2.46 5.43 35.5 35.5 0 0 0-3.48 13.66 27.87 27.87 0 0 0 .77 8.86 4.73 4.73 0 0 1 .17 1.91 2.28 2.28 0 0 1-3.71 1.7 6.71 6.71 0 0 1-1.46-1.5 30.47 30.47 0 0 1-6.07-13.9c-.12-.7.09-1.75-.71-2s-1.41.65-1.91 1.26a12 12 0 0 0 1.91 17.23 15.19 15.19 0 0 0 3.82 1.69c2.26 1 3 2 2.93 4.45a1.77 1.77 0 0 1-.47.92c-1.24 9.05-10.29 14.76-19.56 12.1-7.63-2.19-12.55-7-13.6-15.23a1.66 1.66 0 0 1 .7-1.83A1.53 1.53 0 0 1 13 53c.61.42 1.35 1.22 2 .86s.11-1.37 0-2.08c-.73-8.61 6.28-16.7 14.87-17.11a14.44 14.44 0 0 1 1.59.1c-.92-5.8-.81-11.49 2.54-16.47a44.9 44.9 0 0 1 7.47-9.19c4.92-4.32 10.71-6.45 17-7.48 1.64-.27 3.28-.61 4.89-1 10.52-2.69 22.53 4.81 26.33 12 .43.72.9 1.43 1.31 2.17Z" class="cls-28"/><path fill="#342d38" d="M63.46 64.52c-5.13 0-8.35-2.64-8.75-7.28-.06-.68-.22-1.62.77-1.61s.66.91.65 1.53a5.27 5.27 0 0 0 4.19 5.39 13.17 13.17 0 0 0 7.15-.32c.72-.19 1.84-.83 2.14.11s-1 1.19-1.72 1.46a11.71 11.71 0 0 1-4.43.72Z"/><circle cx="58.21" cy="41.51" r="2.73" class="cls-24"/><circle cx="81.04" cy="42.19" r="2.73" class="cls-24"/><path d="M71.51 39.73c.09 1.46.16 2.68.36 4A44.07 44.07 0 0 0 74 51.45a7 7 0 0 1 .3 1 2 2 0 0 1-.79 1.6c-1.35 1-2.68 2-4.1 2.82" class="cls-27"/></g></g></svg>