<svg xmlns="http://www.w3.org/2000/svg" viewBox="0 0 216 216"><defs><style>.cls-2{fill:#814e9e}.cls-3{fill:#9b68b8}.cls-13,.cls-14{fill:none;stroke-linecap:round}.cls-14{stroke-miterlimit:10}.cls-6{fill:#79311c}.cls-7{fill:#98513c}.cls-10{fill:#f3d1c6}.cls-11{fill:#e5957d}.cls-13,.cls-14{stroke-width:1.59px}.cls-13{stroke:#824e9e;stroke-linejoin:round}.cls-14{stroke:#814e9e}</style></defs><path id="Layer_13" fill="#c8c3e2" fill-rule="evenodd" d="M101.55 8.92c27.15 2.93 38.93 34.08 56.31 55.15 14.7 17.81 34.31 33.26 35.63 56.31 1.38 24-11 47-28.78 63.17-17 15.51-40.15 21.42-63.16 20.65-22.19-.73-43.58-8.84-59.11-24.71-15.36-15.7-21-37.22-22.88-59.11-2.07-24.51-2.56-50.15 12-70C48.28 27.7 73.52 5.89 101.55 8.92Z" data-name="Layer 13"/><g id="Layer_5" data-name="Layer 5"><circle cx="162.59" cy="111.85" r="19.35" class="cls-2"/><circle cx="77.83" cy="111.26" r="19.35" class="cls-2"/><path d="M163.17 117.24c0-.25.66-5.16.55-5.39-.18-.41-.92 2.83-1.43 3.16-.55 1.1-1.66 2.62-2.83 2.54-.54 0-.94-.3-.92-.94.05-2.06 0-4.13.19-6.17a69.65 69.65 0 0 0-.25-17c-.24-1.79-.28-1.76-2.14-1.84-2.82-.12-5.48-.7-7.58-2.8a11.31 11.31 0 0 1-3.37-11.28c.06-.27.27-.58 0-.82s-.53 0-.78.11a18.59 18.59 0 0 1-9.61 1.41c-3.08-.41-6.12-.77-8.7-2.8a25.86 25.86 0 0 1-4.74-5.34c-.45-.61-.81-.72-1.36-.14a28 28 0 0 0-2.06 2.3 22.54 22.54 0 0 1-4.77 5 20.72 20.72 0 0 1-11.81 3.89c-3.3.12-6.62-.14-9.36-2.39-.65-.54-.85 0-1.12.36a43.94 43.94 0 0 0-5.12 10 14.8 14.8 0 0 0-1.13 6.49c.86-.25 1-1.06 1.19-1.74a3.2 3.2 0 0 1 2.47-2.18 10.74 10.74 0 0 1 2.33-.2h18.55c2.86 0 3.62.56 4.65 3.28a11 11 0 0 0 1.73 3.66 4.81 4.81 0 0 0 2.06.23h10.21a5.35 5.35 0 0 1 4 1.2 1.33 1.33 0 0 0 .43 0l.3 1.34a4.06 4.06 0 0 1-.46.55 1 1 0 0 0-.11.39c0 1.44.39 2.84.38 4.3v25.25c0 1.66.47 1.91 1.93 1.1 1.88-1 3.78-2 5.68-3a5.33 5.33 0 0 1 1.49-.59 1.47 1.47 0 0 1 1.95 1.21 9.52 9.52 0 0 1 .14 4.41c-.45 1.84-.92 3.68-1.5 5.49a17.37 17.37 0 0 1-5.79 8.43 16.37 16.37 0 0 1-11.49 3.77 22.14 22.14 0 0 1-11.09-3.92 5 5 0 0 0-3-.92c-2.6.07-5.2 0-7.8 0h-12c-.48 0-1.26-.32-1.29.66 4.74 7.28 10.82 13.06 18.86 16.54a32.09 32.09 0 0 0 27.38-.45 40.69 40.69 0 0 0 14.26-11.4 59.22 59.22 0 0 0 11.82-24.31 41.12 41.12 0 0 0 1.06-11.45Z" class="cls-3"/><path d="M143.43 128.94c5.59 9.09-.54 21.16-10.38 25.27a19.33 19.33 0 0 1-25.28-10.39c-4.11-9.84 5.84-4.24 15.68-8.35s16.72-11.83 19.98-6.53Z" class="cls-2"/><path fill="none" stroke="#231f20" stroke-linecap="round" stroke-miterlimit="10" stroke-width="2.38" d="M132.16 102.13s9.2-9.21 19.44-.9"/><path fill="#754091" d="M78.36 88.31C69 82 62.27 70 66.79 58.05c3.59-9 14.89-12.55 24-11.81 3.43-.31 7.91 3.68 10.26 2.52 6.69-6.37 18.68-6.95 24.77.61 1.38 2.3 8.23-5 12-4.94 9.83-2.29 18.77 5.79 21.27 14.82 1 2.11.18 5.17 3.34 5.46 10.06 2.16 14.31 15.4 6.62 24.1-1.57 3.06-3.59 5.84-3.87 9.46-1.59 5.87-.34 12.42-2.61 18-.58 2.16-4.72 2.9-4.63.06.13-7.41 1.19-14.82 0-22.2-.19-1.62-.52-1.9-2.13-1.92-7.65-.07-12.29-7.51-11.32-13.26.19-1.14 0-1.26-1.08-1-19.2 5.69-21.09-11.42-24.44-5.82-5.37 8.28-17.07 12.24-26.11 7.88-3.55-1.05-6 9.44-7.29 12.12-.71 2.12.44 4.51-1.47 6.26-5.56 1.98-5.5-6.39-5.74-10.08Z"/><rect width="12.74" height="9.01" x="56.83" y="93.24" class="cls-6" rx="4.5"/><path d="M72.14 143.47a32.31 32.31 0 0 0-8.39-.35c-2.39.11-2.5.16-2.2 2.59a11.34 11.34 0 0 1-4.91 8.76c-.36.25-.7.68-1.17.32s-.22-.81 0-1.22c1.43-3.37.7-6.27-1.89-8.78a5.22 5.22 0 0 1-.87-1c-.67-1.13-.3-1.89 1-2.1a9 9 0 0 1 1.91-.25c5.75.23 11.58-.49 17.21 1.28.94.29 1.84.72 2.76 1.08-.09.2-.18.39-.26.59a12.7 12.7 0 0 0-3.19-.92Z" class="cls-2"/><path d="M53.81 139.35H130a3.41 3.41 0 0 1 3.41 3.41v6.29h-83v-6.29a3.41 3.41 0 0 1 3.4-3.41Z" class="cls-7" transform="rotate(180 91.92 144.21)"/><path d="M53.81 98H130a3.41 3.41 0 0 1 3.41 3.41v6.29h-83v-6.29a3.41 3.41 0 0 1 3.4-3.41Z" class="cls-7"/><path d="M50.4 107.69h83.04v31.67H50.4z" class="cls-6"/><circle cx="101.74" cy="122.48" r="21.54" fill="#571c0a"/><path fill="#e5957e" d="M101.75 105.25a17.24 17.24 0 1 1-17.24 17.2 17.23 17.23 0 0 1 17.24-17.2Z"/><path d="M88.3 121.38a13.91 13.91 0 0 1 5.09-10.54 7.54 7.54 0 0 1 3.54-1.67 2.6 2.6 0 0 1 2.19.58 1.1 1.1 0 0 1 .15 1.87 11.55 11.55 0 0 1-2.19 1.61c-4.65 3.08-6.35 7.22-5.19 12.65 0 .2.1.4.12.6 0 .5.13 1-.44 1.29s-.91-.16-1.23-.56a8.37 8.37 0 0 1-2.04-5.83ZM102.75 113.38a3.72 3.72 0 0 1 3.74-3.53c1.72 0 3.55 2.16 3.49 4a3.74 3.74 0 0 1-3.58 3.29 3.86 3.86 0 0 1-3.65-3.76Z" class="cls-10"/><rect width="11.02" height="6.6" x="119.55" y="99.57" class="cls-11" rx="2.21"/><rect width="3.14" height="1.88" x="120.89" y="100.5" fill="#f3d0c4" rx=".94"/><path d="M115.86 98H84.05c.25-.81.51-1.62.77-2.43s.48-1.74.83-2.56c.74-1.75 2.28-2.13 4-2.13h21a3.32 3.32 0 0 1 3.35 2.27c.72 1.59 1.26 3.23 1.86 4.85Z" class="cls-6"/><rect width="23.91" height="2.98" x="87.65" y="92.95" class="cls-11" rx="1.49"/><rect width="5.15" height="1.05" x="88.87" y="93.62" class="cls-10" rx=".53"/><rect width="11.41" height="31.52" x="41.15" y="89.17" class="cls-3" rx="5.37" transform="rotate(20.01 46.8617 104.9467)"/><path d="m45.75 97.31-.29-.51a4.76 4.76 0 0 1 1.74-6.48l17.16-7.57a4.76 4.76 0 0 1 6.48 1.74l.29.5c1.14 1.73-2 6.28-4.22 7.59L52.24 99a4.76 4.76 0 0 1-6.49-1.69Z" class="cls-3"/><path d="M62.93 156.67a1.31 1.31 0 0 1 .08-1.84 38.15 38.15 0 0 0 4.42-5.76H60a7.64 7.64 0 0 1-2.11 3.43c-.22.21-.42.54-.87.32 0-.81.3-1.59.23-2.42a7.32 7.32 0 0 0-2.25-4.8 1.65 1.65 0 0 1-.58-.87 3.29 3.29 0 0 1-.39-1.43 2.92 2.92 0 0 1 .85-2 3 3 0 0 1 1.63-.81 5.66 5.66 0 0 1-.56-2.19 8 8 0 0 1 1.37-5.08 36.22 36.22 0 0 1-4.77-.07c-.51 0-1.22.09-1.33-.61s.54-1 1-1.22a41 41 0 0 1 6-2.63 22.75 22.75 0 0 1 3.25-.59 2.9 2.9 0 0 1 2.29.56 15.31 15.31 0 0 1-1.46-5.42c-.54-4.59.87-11.58 4.83-14.84l-.05-.15c-.86 0-1.1-.73-1.7-1-3-1.15-6.17-1.06-9.33-.88a23 23 0 0 0-4.32 1.33 2.5 2.5 0 0 0 .51-.89.52.52 0 0 1-.08-.58 9 9 0 0 0 .44-1.45c.12-.48.28-1 .44-1.43s.36-1 .57-1.44a7.4 7.4 0 0 0 .39-1 9.93 9.93 0 0 1-7.85-.68 8.65 8.65 0 0 1-2.61-2.36c-.24.83-.68 1.58-1 2.39s-.54 1.74-.88 2.64a11.48 11.48 0 0 1-.76 2c-.12.41-.24.82-.38 1.22a6 6 0 0 1-2.52 3.12c-3.32 2.12-4.51 4.73-3.76 8.69a25 25 0 0 1 .51 8.28 9.37 9.37 0 0 0 1.34 6.65 6.37 6.37 0 0 1 1.43 3.14c.33 5.18 1.53 10.24 2.31 15.36a29.83 29.83 0 0 0 5.1 12.29c1.58 2.33 3.6 4.3 5.16 6.63 1.24 1.87 1.44 2.13 3 1.73l4.39-1.84a31.52 31.52 0 0 0 3.58-1.8c.75-.42 1.53-.81 2.32-1.17a16 16 0 0 1 2.94-1.45c1.27-.93 1.25-2.07 0-3.93s-2.19-3.48-3.39-5.15Zm-1.64-41.73a6 6 0 0 0-2.73.19 5.39 5.39 0 0 1 2.73-.19Zm-3.31.38.56-.19-.5.17q-3.23 1.23-6.54 2.25 3.29-1.02 6.5-2.23Z" class="cls-3"/><rect width="10.08" height="31.52" x="45.36" y="107.12" class="cls-3" rx="5.04" transform="rotate(74.92 50.3995 122.8845)"/><path d="m57 118.16.3-.5a4.77 4.77 0 0 1 6.5-1.66l14.93 11.33a4.77 4.77 0 0 1 1.63 6.52l-.3.49c-1 1.84-6.44 1.33-8.68 0l-12.77-9.69a4.76 4.76 0 0 1-1.61-6.49Z" class="cls-3"/><rect width="10.08" height="31.52" x="44.61" y="96.47" class="cls-3" rx="5.04" transform="rotate(74.92 49.6518 112.2308)"/><path d="m55.38 107.84.23-.53a4.77 4.77 0 0 1 6.24-2.49l16.31 9.24a4.76 4.76 0 0 1 2.49 6.23l-.23.54c-.7 1.94-6.21 2.18-8.61 1.14l-14-7.89a4.76 4.76 0 0 1-2.43-6.24Z" class="cls-3"/><rect width="8.38" height="23.55" x="47.06" y="126.17" class="cls-3" rx="3.97" transform="rotate(84.53 51.2486 137.9448)"/><path d="m54.92 136.14.14-.45a4 4 0 0 1 5.12-2.45l15.08 6.45a4 4 0 0 1 2.81 4.93l-.15.46c-.4 1.63-5.12 2.19-7.3 1.51l-12.89-5.52a4 4 0 0 1-2.81-4.93Z" class="cls-3"/><path d="m43.26 119.17 17.15-4.53 11.4 7.33M52.73 106.17l-9.47 2.28" class="cls-13"/><path d="M57.9 149.48a9.47 9.47 0 0 0-2.88-5c-1.46-1.54.1-2.17.1-2.17a4.78 4.78 0 0 1 4.05 0c2 1 12.75 4.41 12.75 4.41M50.75 132.59a18.11 18.11 0 0 1 12.41-4.47" class="cls-14"/></g></svg>