<?xml version="1.0" encoding="UTF-8" standalone="no"?>
<!DOCTYPE svg PUBLIC "-//W3C//DTD SVG 1.1//EN" "http://www.w3.org/Graphics/SVG/1.1/DTD/svg11.dtd">
<svg width="100%" height="100%" viewBox="0 0 381 100" version="1.1" xmlns="http://www.w3.org/2000/svg" xmlns:xlink="http://www.w3.org/1999/xlink" xml:space="preserve" xmlns:serif="http://www.serif.com/" style="fill-rule:evenodd;clip-rule:evenodd;stroke-linejoin:round;stroke-miterlimit:2;">
    <g transform="matrix(1,0,0,1,0,-225)">
        <g id="Page-11" serif:id="Page 11" transform="matrix(1,0,0,1,0,225)">
            <rect x="0" y="0" width="380.626" height="100" style="fill:none;"/>
            <clipPath id="_clip1">
                <rect x="0" y="0" width="380.626" height="100"/>
            </clipPath>
            <g clip-path="url(#_clip1)">
                <g id="white_logotype_h">
                    <g transform="matrix(1,0,0,1,18.8398,38.2274)">
                        <path d="M0,25.504C1.199,23.898 1.925,21.978 2.093,19.968C2.128,19.721 2.128,19.47 2.093,19.223L23.027,11.877L23.759,11.877L23.759,39.451C22.36,39.777 21.042,40.394 19.887,41.261L7.641,31.679L0,25.504ZM2.093,-11.972C3.692,-12.032 5.26,-12.432 6.699,-13.142L22.084,6.34C22.152,6.4 22.205,6.474 22.242,6.557C22.278,6.639 22.297,6.729 22.297,6.819C22.297,6.91 22.278,7 22.242,7.082C22.205,7.165 22.152,7.238 22.084,7.299L1.151,14.645C0.056,12.517 -1.714,10.828 -3.873,9.854L2.093,-11.972ZM57.88,10.386C56.111,11.267 54.65,12.679 53.694,14.432L31.504,7.299C31.416,7.255 31.341,7.187 31.289,7.102C31.237,7.018 31.209,6.92 31.209,6.819C31.209,6.72 31.237,6.621 31.289,6.536C31.341,6.452 31.416,6.384 31.504,6.34L47.205,-12.93C48.7,-12.188 50.36,-11.857 52.019,-11.972L57.88,10.386ZM28.888,39.451L28.888,12.196C28.979,12.127 29.089,12.089 29.202,12.089C29.315,12.089 29.425,12.127 29.516,12.196L52.229,19.542C52.182,19.823 52.182,20.111 52.229,20.394C52.289,22.054 52.68,23.684 53.38,25.185L33.493,41.261C32.136,40.265 30.55,39.642 28.888,39.451M12.56,-20.276L41.448,-21.021C41.83,-19.154 42.697,-17.426 43.96,-16.017L27.004,3.892L26.062,3.892L10.676,-15.805C11.635,-17.127 12.28,-18.657 12.56,-20.276M62.695,9.321L56.834,-12.93C58.611,-13.815 60.106,-15.196 61.144,-16.911C62.181,-18.626 62.719,-20.604 62.695,-22.618C62.695,-25.441 61.592,-28.149 59.629,-30.146C57.667,-32.142 55.004,-33.265 52.229,-33.265C50.021,-33.263 47.871,-32.552 46.085,-31.232C44.3,-29.913 42.969,-28.053 42.285,-25.918L12.56,-25.066C12.241,-27.891 10.832,-30.47 8.643,-32.236C6.455,-34.003 3.666,-34.813 0.89,-34.488C-1.886,-34.164 -4.421,-32.73 -6.159,-30.505C-7.896,-28.278 -8.692,-25.441 -8.373,-22.618C-8.368,-20.692 -7.85,-18.804 -6.873,-17.153C-5.896,-15.504 -4.497,-14.154 -2.826,-13.249L-8.373,9.321C-11.149,9.321 -13.812,10.443 -15.774,12.44C-17.737,14.437 -18.84,17.145 -18.84,19.968C-18.84,22.791 -17.737,25.499 -15.774,27.496C-13.812,29.492 -11.149,30.614 -8.373,30.614C-6.602,30.558 -4.873,30.045 -3.349,29.123L4.501,35.618L16.642,45.093C15.998,46.529 15.677,48.093 15.7,49.671C15.7,52.495 16.803,55.203 18.766,57.199C20.729,59.196 23.391,60.317 26.167,60.317C28.942,60.317 31.605,59.196 33.567,57.199C35.53,55.203 36.633,52.495 36.633,49.671C36.624,48.005 36.229,46.363 35.482,44.88L56.206,28.272C58.047,29.775 60.334,30.601 62.695,30.614C65.471,30.614 68.133,29.492 70.096,27.496C72.059,25.499 73.162,22.791 73.162,19.968C73.162,17.145 72.059,14.437 70.096,12.44C68.133,10.443 65.471,9.321 62.695,9.321" style="fill:white;fill-rule:nonzero;"/>
                    </g>
                    <g transform="matrix(1,0,0,1,361.701,54.0861)">
                        <path d="M0,-8.172L0,-8.387C0,-11.9 -0.825,-14.659 -2.473,-16.667C-4.051,-18.745 -6.274,-19.785 -9.14,-19.785C-11.936,-19.785 -14.158,-18.745 -15.806,-16.667C-17.384,-14.659 -18.172,-11.9 -18.172,-8.387L-18.172,-8.172L0,-8.172ZM-9.032,26.559C-17.634,26.559 -24.408,24.229 -29.354,19.57C-34.301,14.91 -36.882,8.137 -37.097,-0.753L-37.097,-4.516C-36.812,-12.975 -34.193,-19.569 -29.247,-24.301C-24.231,-29.104 -17.526,-31.505 -9.14,-31.505C-3.049,-31.505 2.078,-30.251 6.237,-27.742C10.465,-25.305 13.618,-21.936 15.699,-17.635C17.85,-13.333 18.925,-8.387 18.925,-2.796L18.925,-0.215C18.925,0.502 18.672,1.147 18.172,1.721C17.67,2.223 17.024,2.474 16.237,2.474L-18.172,2.474L-18.172,3.225C-18.029,6.595 -17.204,9.319 -15.698,11.397C-14.193,13.476 -12.008,14.516 -9.14,14.516C-7.35,14.516 -5.879,14.158 -4.73,13.441C-3.586,12.652 -2.546,11.721 -1.612,10.645C-0.968,9.856 -0.468,9.39 -0.107,9.247C0.323,9.032 0.968,8.925 1.828,8.925L15.161,8.925C15.807,8.925 16.345,9.14 16.774,9.57C17.274,9.929 17.527,10.431 17.527,11.075C17.527,12.939 16.452,15.09 14.302,17.527C12.221,19.964 9.175,22.079 5.161,23.871C1.146,25.663 -3.586,26.559 -9.032,26.559M-86.469,45.914C-87.113,45.914 -87.651,45.699 -88.081,45.268C-88.512,44.839 -88.727,44.301 -88.727,43.656C-88.727,43.154 -88.619,42.688 -88.404,42.258L-80.017,22.043L-100.662,-26.775C-100.877,-27.348 -100.984,-27.777 -100.984,-28.065C-100.841,-28.71 -100.555,-29.247 -100.124,-29.678C-99.694,-30.18 -99.156,-30.43 -98.512,-30.43L-86.253,-30.43C-84.748,-30.43 -83.708,-29.678 -83.135,-28.172L-70.877,3.118L-58.296,-28.172C-57.579,-29.678 -56.504,-30.43 -55.07,-30.43L-43.026,-30.43C-42.381,-30.43 -41.844,-30.18 -41.413,-29.678C-40.914,-29.247 -40.661,-28.745 -40.661,-28.172C-40.661,-27.885 -40.769,-27.419 -40.983,-26.775L-71.415,43.656C-71.988,45.161 -73.063,45.914 -74.641,45.914L-86.469,45.914ZM-124.978,25.484C-125.766,25.484 -126.411,25.233 -126.913,24.731C-127.415,24.229 -127.665,23.584 -127.665,22.796L-127.665,-27.742C-127.665,-28.53 -127.415,-29.176 -126.913,-29.678C-126.411,-30.18 -125.766,-30.43 -124.978,-30.43L-112.289,-30.43C-111.501,-30.43 -110.855,-30.18 -110.354,-29.678C-109.852,-29.176 -109.601,-28.53 -109.601,-27.742L-109.601,22.796C-109.601,23.513 -109.852,24.158 -110.354,24.731C-110.855,25.233 -111.501,25.484 -112.289,25.484L-124.978,25.484ZM-125.085,-38.494C-125.873,-38.494 -126.519,-38.745 -127.021,-39.247C-127.522,-39.749 -127.773,-40.395 -127.773,-41.183L-127.773,-50.86C-127.773,-51.649 -127.522,-52.294 -127.021,-52.796C-126.519,-53.298 -125.873,-53.548 -125.085,-53.548L-112.182,-53.548C-111.394,-53.548 -110.748,-53.298 -110.246,-52.796C-109.744,-52.294 -109.493,-51.649 -109.493,-50.86L-109.493,-41.183C-109.493,-40.395 -109.744,-39.749 -110.246,-39.247C-110.748,-38.745 -111.394,-38.494 -112.182,-38.494L-125.085,-38.494ZM-166.307,25.484C-167.023,25.484 -167.668,25.233 -168.241,24.731C-168.743,24.158 -168.994,23.513 -168.994,22.796L-168.994,-16.344L-177.166,-16.344C-177.955,-16.344 -178.601,-16.595 -179.102,-17.097C-179.604,-17.599 -179.854,-18.244 -179.854,-19.032L-179.854,-27.742C-179.854,-28.53 -179.604,-29.176 -179.102,-29.678C-178.601,-30.18 -177.955,-30.43 -177.166,-30.43L-168.994,-30.43L-168.994,-33.871C-168.994,-40.968 -166.987,-46.093 -162.973,-49.247C-158.887,-52.473 -153.045,-54.086 -145.446,-54.086L-137.059,-54.086C-136.271,-54.086 -135.625,-53.835 -135.123,-53.333C-134.622,-52.831 -134.371,-52.187 -134.371,-51.398L-134.371,-42.689C-134.371,-41.972 -134.622,-41.326 -135.123,-40.753C-135.625,-40.251 -136.271,-40 -137.059,-40L-144.586,-40C-146.951,-40 -148.636,-39.427 -149.64,-38.279C-150.644,-37.204 -151.145,-35.556 -151.145,-33.333L-151.145,-30.43L-138.134,-30.43C-137.346,-30.43 -136.7,-30.18 -136.198,-29.678C-135.697,-29.176 -135.446,-28.53 -135.446,-27.742L-135.446,-19.032C-135.446,-18.316 -135.697,-17.67 -136.198,-17.097C-136.7,-16.595 -137.346,-16.344 -138.134,-16.344L-151.145,-16.344L-151.145,22.796C-151.145,23.513 -151.396,24.158 -151.897,24.731C-152.399,25.233 -153.045,25.484 -153.833,25.484L-166.307,25.484ZM-216.515,14.301C-213.217,14.301 -210.565,13.225 -208.558,11.075C-206.479,8.925 -205.439,5.77 -205.439,1.613L-205.439,0.107L-214.579,1.721C-221.031,2.867 -224.256,5.126 -224.256,8.495C-224.256,10.287 -223.504,11.721 -221.999,12.796C-220.493,13.799 -218.665,14.301 -216.515,14.301M-221.568,26.559C-225.368,26.559 -228.844,25.842 -231.999,24.408C-235.081,22.903 -237.518,20.896 -239.31,18.387C-241.031,15.807 -241.891,12.975 -241.891,9.892C-241.891,4.946 -239.884,0.968 -235.87,-2.043C-231.783,-5.054 -226.192,-7.133 -219.095,-8.279L-205.654,-10.322L-205.654,-11.828C-205.654,-14.552 -206.228,-16.559 -207.375,-17.85C-208.522,-19.14 -210.458,-19.785 -213.181,-19.785C-214.83,-19.785 -216.192,-19.498 -217.267,-18.925C-218.342,-18.352 -219.454,-17.563 -220.601,-16.559C-221.604,-15.699 -222.357,-15.125 -222.859,-14.839C-223.074,-14.266 -223.468,-13.979 -224.042,-13.979L-235.762,-13.979C-236.479,-13.979 -237.088,-14.193 -237.59,-14.624C-238.02,-15.125 -238.199,-15.699 -238.127,-16.344C-238.056,-18.279 -237.124,-20.43 -235.332,-22.796C-233.468,-25.161 -230.672,-27.204 -226.945,-28.925C-223.146,-30.646 -218.486,-31.505 -212.966,-31.505C-204.149,-31.505 -197.625,-29.534 -193.396,-25.592C-189.167,-21.721 -187.052,-16.487 -187.052,-9.893L-187.052,22.796C-187.052,23.513 -187.303,24.158 -187.805,24.731C-188.307,25.233 -188.952,25.484 -189.74,25.484L-202.213,25.484C-202.931,25.484 -203.576,25.233 -204.149,24.731C-204.651,24.158 -204.902,23.513 -204.902,22.796L-204.902,19.032C-206.479,21.255 -208.701,23.083 -211.568,24.516C-214.364,25.878 -217.697,26.559 -221.568,26.559" style="fill:white;fill-rule:nonzero;"/>
                    </g>
                </g>
            </g>
        </g>
    </g>
</svg>
