<svg xmlns="http://www.w3.org/2000/svg" viewBox="0 0 396.09 63.97"><defs><style>.cls-1{fill:#fff;}.cls-2{fill:#201d1d;}.cls-3{fill:none;}</style></defs><g id="Layer_2" data-name="Layer 2"><g id="Layer_1-2" data-name="Layer 1"><rect class="cls-1" width="396.09" height="63.97"/><path class="cls-2" d="M9,33.47V9.7H22.16c8.93,0,13.68,5.33,13.68,11.91a11,11,0,0,1-6.38,10.08l6.86,9.13H29.84l-5.43-7.59a17.54,17.54,0,0,1-2.78.24H14.57m7.83-4.8c4.46,0,7.58-3.17,7.58-7.06a7.17,7.17,0,0,0-7.53-7.15H14.57V28.67Z"/><path class="cls-2" d="M41,9.7H65.18v4.81H46.6v7.58H64.12v4.75H46.6V36H65.85v4.8H41Z"/><path class="cls-2" d="M73.06,9.69H91.85c12.8,0,19.61,7.64,19.61,17s-6.81,17-19.68,17H81.05v10.6h-8ZM92.33,36.8c6.68,0,10.81-4.54,10.81-10.11S99,16.57,92.4,16.57H81.05V36.8Z"/><path class="cls-2" d="M118.42,36.53V9.69h8V36.11c0,7.37,4.13,11.57,11,11.57s10.94-4.2,10.94-11.57V9.69h8V36.53C156.33,48,148.9,55,137.41,55S118.42,48,118.42,36.53Z"/><path class="cls-2" d="M165.35,43.75V9.69h18.86c12.8,0,19.61,7.64,19.61,17.07a15.84,15.84,0,0,1-9.15,14.45l9.84,13.07h-9.29l-7.78-10.87a24.2,24.2,0,0,1-4,.34H173.33m11.22-6.88c6.4,0,10.87-4.54,10.87-10.11,0-5.72-4.47-10.26-10.8-10.26H173.33V36.87Z"/><path class="cls-2" d="M211.25,9.69H230c12.8,0,19.61,7.64,19.61,17s-6.81,17-19.68,17H219.24v10.6h-8ZM230.52,36.8c6.68,0,10.81-4.54,10.81-10.11s-4.13-10.12-10.74-10.12H219.24V36.8Z"/><path class="cls-2" d="M255.37,32c0-12.74,10-23,23.46-23S302.3,19.25,302.3,32s-10,23-23.47,23S255.37,44.79,255.37,32ZM294,32c0-8.61-6.47-15.76-15.07-15.76S263.69,23.38,263.69,32s6.47,15.75,15.21,15.75S294,40.59,294,32Z"/><path class="cls-2" d="M307.74,48.57l3.1-6.06a22.13,22.13,0,0,0,14.79,5.23c4.82,0,9.63-2.27,9.63-6.33s-4.61-5.3-9.15-6.4c-8.19-1.92-16.65-4.54-16.65-13.42,0-8.32,7.91-12.59,16.17-12.59a27,27,0,0,1,15.83,4.82l-3.1,6.12a22.93,22.93,0,0,0-12.73-3.71c-3,0-8.05,1.24-8.05,5.3,0,3.57,4,4.74,9.36,6,8.46,2,16.65,5.16,16.65,13.83,0,9.36-9.22,13.56-18,13.56C315.86,55,310.7,51.32,307.74,48.57Z"/><path class="cls-2" d="M351.51,9.69h34.61v6.88H359.49V27.44h25.12v6.82H359.49V47.4h27.6v6.88H351.51Z"/><polyline class="cls-3" points="176.21 43.75 165.35 43.75 158.24 43.75"/><rect class="cls-2" x="33.43" y="21.87" width="7.98" height="56.85" transform="translate(87.72 12.87) rotate(90)"/></g></g></svg>