<svg xmlns="http://www.w3.org/2000/svg" viewBox="0 0 504 504"><defs><style>.cls-1{fill:#333438;}.cls-2{fill:#5cc5c2;}.cls-3{fill:#eb4523;}</style></defs><g id="Layer_2" data-name="Layer 2"><g id="Layer_1-2" data-name="Layer 1"><rect class="cls-1" width="504" height="504"/><rect class="cls-2" x="207.05" y="234.55" width="69.43" height="28.18" transform="translate(30.32 523.52) rotate(-98.24)"/><path class="cls-2" d="M269.79,230l-66.94,9.68,4.09,28.2L275.67,258l-4.12-28.24C271,229.84,270.4,230,269.79,230Z"/><path class="cls-3" d="M350.87,265.45c-2.52-17.42-14.27-29.06-27.64-32.51,8.77-5.71,17.2-17,14.28-37.17-4.18-28.88-28.77-40.3-62.46-35.42L152.41,178.1l5.16,35.62,35.75-5.17v-.1l82.06-11.88c15.36-2.22,25.09.35,26.89,12.73,1.48,10.27-3.19,16.32-14.95,18.5L291.43,256l.72-.1c12.84-1.86,20.65,3.56,22.24,14.57,1.76,12.15-7.3,19.07-22.43,21.26L207.15,304l0-.15-35.76,5.17,5.17,35.68,127-18.38C336.3,321.62,355.65,298.46,350.87,265.45Z"/></g></g></svg>