<svg xmlns="http://www.w3.org/2000/svg" viewBox="0 0 108 108"><defs><style>.cls-1{fill:#1b1a1f}.cls-2{fill:#fff}</style></defs><g id="Layer_2" data-name="Layer 2"><g id="Layer_1-2" data-name="Layer 1"><path d="M0 0h108v108H0z" class="cls-1"/><path d="M62.28 59.92h9.01v8.11h-9.01zM55.77 48.71H47.6v-12h9.55c4 0 5 .79 5.13 4.54h9v-.45C71.29 35 70 32 66.49 30.35 64.68 29.41 62.05 29 58 29H38.59v39h9V56.38h8.17Z" class="cls-2"/><path fill="#f4ede9" d="M30.93 20.52h48.03v55.99H30.93z"/><path d="M62.28 59.92h9.01v8.11h-9.01zM55.77 48.71H47.6v-12h9.55c4 0 5 .79 5.13 4.54h9v-.45C71.29 35 70 32 66.49 30.35 64.68 29.41 62.05 29 58 29H38.59v39h9V56.38h8.17Z" class="cls-1"/><text fill="#f4ede9" font-family="P22Underground-LtS,P22 Underground" font-size="13.04" letter-spacing="-.01em" transform="translate(30.38 87.48)">se<tspan x="12.68" y="0" letter-spacing="-.04em">r</tspan><tspan x="18.87" y="0">vic</tspan><tspan x="36.76" y="0" letter-spacing="-.04em">e</tspan><tspan x="42.9" y="0">s</tspan></text></g></g></svg>