<svg width="540" height="133" viewBox="0 0 540 133" fill="none" xmlns="http://www.w3.org/2000/svg">
<g clip-path="url(#clip0)">
<path d="M196.034 0.93103H173.976V48.4604H196.034V0.93103ZM196.034 70.692H173.976V107.489C173.976 119.448 183.56 129.26 195.578 129.26H206.531V107.029H196.034V70.692" fill="white"/>
<path d="M206.531 48.4604H196.034V70.6919H206.531V48.4604ZM173.976 48.4604H167.586V70.6919H173.976V48.4604Z" fill="white"/>
<path d="M196.034 48.4604H173.976V70.6919H196.034V48.4604Z" fill="white"/>
<path d="M257.598 48.6139C253.034 48.6139 248.318 49.5338 244.058 51.3737V84.4909C244.058 76.9782 250.143 70.8454 257.598 70.8454C265.052 70.8454 271.137 76.9782 271.137 84.4909V129.414H293.196V84.4909C293.044 64.7126 277.222 48.6139 257.598 48.6139Z" fill="white"/>
<path d="M244.058 1.08447H221.999V84.4909C221.999 69.9255 230.671 56.8932 244.058 51.3737V1.08447Z" fill="white"/>
<path d="M244.058 51.3737C230.671 56.8932 221.999 69.9255 221.999 84.4909V129.414H244.058V84.4909V51.3737Z" fill="white"/>
<path d="M375.243 93.8435C375.243 108.256 366.572 121.288 353.185 126.807V129.414H375.243V93.8435Z" fill="white"/>
<path d="M326.866 48.4604H304.959V93.8434C304.959 105.649 310.74 116.688 320.477 123.281C330.213 129.874 342.536 131.254 353.337 126.807V93.8434C353.337 101.203 347.404 107.182 340.101 107.182C332.799 107.182 326.866 101.203 326.866 93.8434V48.4604Z" fill="white"/>
<path d="M375.243 48.4604H353.185V93.8434V126.807C366.42 121.441 375.243 108.409 375.243 93.8434V48.4604Z" fill="white"/>
<path d="M411.907 48.4604H389.848V129.26V84.0309C389.848 69.6187 398.519 56.5864 411.907 51.0669V48.4604Z" fill="white"/>
<path d="M425.142 48.4604C420.578 48.4604 416.166 49.3804 411.907 51.0669V84.0309C411.907 76.6715 417.84 70.692 425.142 70.692C432.444 70.692 438.377 76.6715 438.377 84.0309V129.414H460.436V84.0309C460.284 64.4058 444.615 48.4604 425.142 48.4604Z" fill="white"/>
<path d="M411.907 51.0669C398.671 56.4331 389.848 69.4654 389.848 84.0308V129.414H411.907V51.0669Z" fill="white"/>
<path d="M531.937 81.4244C525.7 88.4772 516.876 92.4635 507.596 92.4635C501.815 92.4635 497.099 97.2165 497.099 103.043C497.099 99.2096 499.077 95.6833 502.272 93.8434C505.467 91.8502 509.574 91.8502 512.769 93.8434C515.963 95.8366 518.093 99.363 517.941 103.043V129.414H540V103.043C540 95.07 537.11 87.4039 531.937 81.4244Z" fill="white"/>
<path d="M540 48.6139H517.941V59.653C517.941 65.4792 513.225 70.2321 507.444 70.2321C503.945 70.2321 500.294 70.8454 496.947 71.9186C509.422 67.6257 523.114 71.3054 531.785 81.2712C537.11 75.2917 540 67.6257 540 59.653V48.6139Z" fill="white"/>
<path d="M507.444 70.2319C503.945 70.2319 500.294 70.8452 496.947 71.9185V102.889C496.947 97.063 501.663 92.3101 507.444 92.3101C516.724 92.3101 525.7 88.3238 531.785 81.271C525.7 74.3716 516.876 70.2319 507.444 70.2319Z" fill="white"/>
<path d="M496.947 0.93103H474.888V103.043C474.888 89.0904 483.712 76.5181 496.947 72.0718V0.93103Z" fill="white"/>
<path d="M496.947 72.0718C483.712 76.6714 474.888 89.0904 474.888 103.043V129.414H496.947V103.043V72.0718Z" fill="white"/>
</g>
<path fill-rule="evenodd" clip-rule="evenodd" d="M66.1034 132.207C102.611 132.207 132.207 102.611 132.207 66.1034C132.207 29.5955 102.611 0 66.1034 0C29.5955 0 0 29.5955 0 66.1034C0 102.611 29.5955 132.207 66.1034 132.207ZM55.7822 25.141H73.1407V55.354H81.3976V69.4284H73.1407L73.1407 55.3541H73.0468V55.354H55.7822V25.141ZM73.0468 55.3541V69.4284H55.7822V55.3541H73.0468ZM55.7822 69.4285H73.1407V92.6043H81.4915V106.679H72.7654C63.3824 106.679 55.7822 100.486 55.7822 92.8858V69.4285ZM50.7154 55.354H55.7822V69.4284H50.7154V55.354Z" fill="white"/>
<defs>
<clipPath id="clip0">
<rect width="372.414" height="128.483" fill="white" transform="translate(167.586 0.93103)"/>
</clipPath>
</defs>
</svg>
