<svg xmlns="http://www.w3.org/2000/svg" width="48" height="48" viewBox="0 0 48 48" fill="none"><path fill="#001E36" d="M8.5 1h31C44.2 1 48 4.8 48 9.5v29.8c0 4.7-3.8 8.5-8.5 8.5h-31C3.8 47.8 0 44 0 39.3V9.5C0 4.8 3.8 1 8.5 1z"/><path fill="#31A8FF" d="M10.7998 33.82V13.24c0-.14.06-.22.2-.22.34 0 .66 0 1.12-.02.48-.02.98-.02 1.52-.04s1.12-.02 1.74-.04c.62-.02 1.22-.02 1.82-.02 1.64 0 3 .2 4.12.62 1 .34 1.92.9 2.68 1.64.64.64 1.14 1.42 1.46 2.28.3.84.46 1.7.46 2.6 0 1.72-.4 3.14-1.2 4.26-.8 1.12-1.92 1.96-3.22 2.44-1.36.5-2.86.68-4.5.68-.48 0-.8 0-1-.02-.2-.02-.48-.02-.86-.02v6.42c.02.14-.08.26-.22.28h-3.88c-.16 0-.24-.08-.24-.26zm4.36-16.94v6.72c.28.02.54.04.78.04h1.06c.78 0 1.56-.12 2.3-.36.64-.18 1.2-.56 1.64-1.06.42-.5.62-1.18.62-2.06.02-.62-.14-1.24-.46-1.78-.34-.52-.82-.92-1.4-1.14-.74-.3-1.54-.42-2.36-.4-.52 0-.98 0-1.36.02-.4-.02-.68 0-.82.02zm23.24 5.5c-.6-.32-1.24-.54-1.92-.68-.74-.16-1.48-.26-2.24-.26-.4-.02-.82.04-1.2.14-.26.06-.48.2-.62.4-.1.16-.16.36-.16.54 0 .18.08.36.2.52.18.22.42.4.68.54.46.24.94.46 1.42.66 1.08.36 2.12.86 3.08 1.46.66.42 1.2.98 1.58 1.66.32.64.48 1.34.46 2.06.02.94-.26 1.88-.78 2.66-.56.8-1.34 1.42-2.24 1.78-.98.42-2.18.64-3.62.64-.92 0-1.82-.08-2.72-.26-.7-.12-1.4-.34-2.04-.64-.14-.08-.24-.22-.22-.38v-3.48c0-.06.02-.14.08-.18.06-.04.12-.02.18.02.78.46 1.6.78 2.48.98.76.2 1.56.3 2.36.3.76 0 1.3-.1 1.66-.28.32-.14.54-.48.54-.84 0-.28-.16-.54-.48-.8-.32-.26-.98-.56-1.96-.94-1.02-.36-1.96-.84-2.84-1.44-.62-.44-1.14-1.02-1.52-1.7-.32-.64-.48-1.34-.46-2.04 0-.86.24-1.68.68-2.42.5-.8 1.24-1.44 2.1-1.84.94-.48 2.12-.7 3.54-.7.82 0 1.66.06 2.48.18.6.08 1.18.24 1.72.46.08.02.16.1.2.18.02.08.04.16.04.24v3.26c0 .08-.04.16-.1.2-.18.04-.28.04-.36 0z"/></svg>