<svg xmlns="http://www.w3.org/2000/svg" width="48" height="48" viewBox="0 0 48 48" fill="none"><path fill="#00005B" d="M8.5 1h31C44.2 1 48 4.8 48 9.5v29.8c0 4.7-3.8 8.5-8.5 8.5h-31C3.8 47.8 0 44 0 39.3V9.5C0 4.8 3.8 1 8.5 1z"/><path fill="#99F" d="M19.2799 29h-7.44l-1.52 4.72c-.04.18-.2.3-.38.28h-3.76c-.22 0-.28-.12-.22-.36l6.44-18.46c.06-.2.12-.38.2-.62.08-.42.12-.86.12-1.3-.02-.1.06-.2.16-.22h5.18c.14 0 .24.06.26.16l7.3 20.4c.06.22 0 .32-.2.32h-4.18c-.14.02-.28-.08-.32-.22l-1.64-4.8v.1zm-6.28-3.98h5.08c-.12-.42-.28-.92-.46-1.44-.18-.54-.36-1.12-.54-1.72-.2-.62-.38-1.22-.58-1.84-.2-.62-.38-1.2-.54-1.78-.16-.56-.3-1.08-.44-1.56h-.04c-.18.86-.4 1.72-.68 2.58-.3.96-.6 1.96-.92 2.96-.26 1.02-.58 1.96-.88 2.8zm24.4 2.18h-6.34c.08.62.28 1.24.62 1.78.36.54.86.96 1.46 1.2.8.34 1.68.52 2.56.5.7-.02 1.4-.08 2.08-.22.62-.08 1.22-.24 1.78-.46.1-.08.16-.04.16.16v3.06c0 .08-.02.16-.04.24-.04.06-.08.1-.14.14-.64.28-1.3.48-2 .6-.94.18-1.88.26-2.84.24-1.52 0-2.8-.24-3.84-.7-.98-.42-1.84-1.08-2.52-1.9-.64-.78-1.1-1.66-1.38-2.62-.28-.94-.42-1.92-.42-2.92 0-1.08.16-2.14.5-3.18.32-1 .82-1.92 1.5-2.74.66-.8 1.48-1.44 2.42-1.9.94-.46 2.06-.62 3.34-.62 1.06-.02 2.12.18 3.1.62.82.36 1.54.9 2.1 1.6.52.68.94 1.44 1.2 2.28.26.8.38 1.62.38 2.44 0 .48-.02.9-.04 1.28-.04.38-.06.66-.08.84-.02.14-.14.26-.28.26-.12 0-.34.02-.66.04-.32.04-.7.06-1.16.06-.46 0-.94-.08-1.46-.08zm-6.34-2.92h4.22c.52 0 .9 0 1.14-.02.16-.02.32-.06.46-.16v-.2c0-.26-.04-.5-.12-.74-.36-1.12-1.42-1.88-2.6-1.84-1.1-.06-2.14.52-2.66 1.52-.24.46-.38.94-.44 1.44z"/></svg>