<svg xmlns="http://www.w3.org/2000/svg" width="48" height="48" viewBox="0 0 48 48" fill="none"><path fill="#300" d="M8.5 1h31C44.2 1 48 4.8 48 9.5v29.8c0 4.7-3.8 8.5-8.5 8.5h-31C3.8 47.8 0 44 0 39.3V9.5C0 4.8 3.8 1 8.5 1z"/><path fill="#FF9A00" d="M23.2599 29.08h-7.44l-1.52 4.7c-.04.18-.2.3-.38.28h-3.76c-.22 0-.28-.12-.22-.36l6.44-18.54c.06-.2.12-.42.2-.66.08-.42.12-.86.12-1.3-.02-.1.06-.2.16-.22h5.18c.16 0 .24.06.26.16l7.3 20.6c.06.22 0 .32-.2.32h-4.18c-.14.02-.28-.08-.32-.22l-1.64-4.76zm-6.28-4.06h5.08c-.12-.42-.28-.92-.46-1.44-.18-.54-.36-1.12-.54-1.72-.2-.62-.38-1.22-.58-1.84-.2-.62-.38-1.2-.54-1.78-.16-.56-.3-1.08-.44-1.56h-.04c-.18.86-.4 1.72-.68 2.58-.3.96-.6 1.96-.92 2.96-.28 1.02-.58 1.96-.88 2.8zm16.98-8.62c-.66.02-1.3-.24-1.78-.7-.46-.5-.7-1.16-.68-1.84-.02-.68.24-1.32.72-1.78.48-.46 1.12-.7 1.78-.7.78 0 1.38.24 1.82.7.44.48.68 1.12.66 1.78.02.68-.22 1.34-.7 1.84-.46.48-1.14.74-1.82.7zm-2.24 17.36v-15.4c0-.2.08-.28.26-.28h3.96c.18 0 .26.1.26.28v15.4c0 .22-.08.32-.26.32h-3.92c-.2 0-.3-.12-.3-.32z"/></svg>