<svg xmlns="http://www.w3.org/2000/svg" height="100%" fill-rule="evenodd" stroke-linejoin="round" stroke-miterlimit="2" clip-rule="evenodd" viewBox="0 0 509 509"><path fill="currentcolor" d="M254.01 0c140.192 0 254.01 113.818 254.01 254.01S394.202 508.02 254.01 508.02 0 394.202 0 254.01 113.818 0 254.01 0zm90.03 206.68h-123v-8.06c0-15.83 15.83-16.13 23.89-16.13 9.25 0 13.44.9 13.44.9v-43.6a155.147 155.147 0 00-19.71-1.19c-25.68 0-73.16 7.16-73.16 61.51v6.91h-22.4v40.31h22.4v85.1h-20.9v40.31h100.91v-40.35h-24.49v-85.1h67.15v85.1H267.3v40.31h97.65v-40.31h-20.91V206.68zm-28.07-71.36c14.83 0 26.87 12.04 26.87 26.87 0 14.83-12.04 26.87-26.87 26.87-14.83 0-26.87-12.04-26.87-26.87 0-14.83 12.04-26.87 26.87-26.87z"/></svg>