<svg xmlns="http://www.w3.org/2000/svg" width="48" height="48" viewBox="0 0 48 48" fill="none"><path fill="#E34F26" d="M6.8438 43.125L3 0h42.2812l-3.8437 43.125L24.0938 48"/><path fill="#EF652A" d="M24.1875 44.25l13.9687-3.8438 3.2813-36.9374h-17.25"/><path fill="#EBEBEB" d="M24.1875 19.5h-7.0313l-.4687-5.4375h7.5v-5.25H10.875l.0938 1.4063 1.3124 14.625h11.9063V19.5zm0 13.7812h-.0937l-5.9063-1.5937-.375-4.2187h-5.25l.6563 8.3437 10.875 3h.0937v-5.5313z"/><path fill="#fff" d="M24.0938 19.5v5.3438h6.5624L30 31.6875l-5.9062 1.5937v5.5313l10.875-3 .0937-.9375 1.2187-13.9688.1876-1.4062h-12.375zm0-10.6875v5.25h12.8437l.0937-1.125.2813-2.7187.0937-1.4063H24.0938z"/></svg>