<svg xmlns="http://www.w3.org/2000/svg" width="48" height="48" viewBox="0 0 48 48" fill="none"><path fill="#000" d="M24.1132 2.0063l13.18 1.4866a1.0096 1.0096 0 01.6976.4015l9.8103 13.2131a1.009 1.009 0 01-.0425 1.2564L24.3842 45.7701a.5051.5051 0 01-.7684-.0001L.2414 18.364a1.0092 1.0092 0 01-.0425-1.2565l9.8103-13.2131a1.0094 1.0094 0 01.6976-.4015l13.18-1.4865a1.0106 1.0106 0 01.2264 0zm2.736 2.8507a.2142.2142 0 00-.3368.259l.018.026 7.4325 9.248a.505.505 0 01-.3522.8192l-.0414.0016H14.4308a.5046.5046 0 01-.4208-.7836l.0271-.0371 7.4325-9.248a.214.214 0 00-.2949-.3059l-.0239.0208L11.082 14.976a.405.405 0 01-.3055.1186.4039.4039 0 01-.3844-.3835v-.0389l.3473-7.3296a.2023.2023 0 00-.1572-.2065.202.202 0 00-.2337.1261l-.0078.0263-1.9078 8.4362a.8078.8078 0 01-.5643.598l-.0536.0134-4.7237 1.0173a.2018.2018 0 00.0151.3974l.0274.0018H7.846a.808.808 0 01.6764.366l.0283.0466 11.3037 20.155a.303.303 0 00.5508-.2463l-.0124-.0306-9.1383-19.4274a.6057.6057 0 01.505-.8618l.0433-.0015h24.3946a.6054.6054 0 01.5653.8236l-.017.0397-9.1383 19.4274a.303.303 0 00.5207.3048l.0177-.0279 11.3037-20.155a.808.808 0 01.6502-.4108l.0545-.0018h4.7121a.2021.2021 0 00.1974-.1593.2017.2017 0 00-.1285-.2323l-.0264-.0076-4.7237-1.0173a.8077.8077 0 01-.6038-.558l-.014-.0533-1.9078-8.4363a.2025.2025 0 00-.2066-.1571.202.202 0 00-.1916.1837l-.0006.0275.3473 7.3296a.4038.4038 0 01-.6592.3316l-.0306-.0278L26.8492 4.857z"/></svg>