<svg width="16" height="16" viewBox="0 0 16 16" fill="none" xmlns="http://www.w3.org/2000/svg">
<style>
  path { stroke: #EA580C;}
  @media (prefers-color-scheme: dark) {
    path { stroke: #FFFFFF; }
  }
</style>
<path d="M1.5 1H4.5C6.433 1 8 2.567 8 4.5C8 6.433 6.433 8 4.5 8C2.567 8 1 6.433 1 4.5V1.5C1 1.22386 1.22386 1 1.5 1Z" stroke-width="2"/>
<path d="M4.5 15H1.5C1.22386 15 1 14.7761 1 14.5V11.5C1 9.567 2.567 8 4.5 8C6.433 8 8 9.567 8 11.5C8 13.433 6.433 15 4.5 15Z" stroke-width="2"/>
<path d="M11.5 1H14.5C14.7761 1 15 1.22386 15 1.5V4.5C15 6.433 13.433 8 11.5 8C9.567 8 8 6.433 8 4.5C8 2.567 9.567 1 11.5 1Z" stroke-width="2"/>
<path d="M15 11.5V14.5C15 14.7761 14.7761 15 14.5 15H11.5C9.567 15 8 13.433 8 11.5C8 9.567 9.567 8 11.5 8C13.433 8 15 9.567 15 11.5Z" stroke-width="2"/>
</svg>
