<?xml version="1.0" standalone="no"?>
<!DOCTYPE svg PUBLIC "-//W3C//DTD SVG 20010904//EN"
 "http://www.w3.org/TR/2001/REC-SVG-20010904/DTD/svg10.dtd">
<svg version="1.0" xmlns="http://www.w3.org/2000/svg"
 width="700.000000pt" height="700.000000pt" viewBox="0 0 700.000000 700.000000"
 preserveAspectRatio="xMidYMid meet">
<metadata>
Created by potrace 1.14, written by Peter Selinger 2001-2017
</metadata>
<g transform="translate(0.000000,700.000000) scale(0.100000,-0.100000)"
fill="#000000" stroke="none">
<path d="M501 6980 c-127 -34 -216 -85 -306 -175 -94 -94 -138 -173 -183 -326
-10 -35 -12 -1560 -2 -1644 14 -118 20 -157 41 -245 82 -357 254 -670 510
-931 52 -52 111 -110 132 -127 l38 -32 -38 -32 c-75 -64 -222 -218 -283 -297
-217 -287 -350 -609 -395 -960 -11 -82 -13 -281 -12 -891 l2 -785 28 -81 c67
-200 219 -351 425 -422 l77 -27 810 0 c790 0 835 1 1000 31 163 29 440 129
557 201 21 13 40 23 43 23 9 0 150 93 210 139 95 73 113 89 238 215 64 65 117
114 117 108 0 -19 219 -233 310 -303 300 -232 641 -369 1020 -409 41 -4 413
-8 825 -9 586 0 763 3 810 13 77 17 167 52 198 76 14 11 30 20 36 20 6 0 48
37 94 83 92 92 144 182 177 309 18 69 19 116 18 833 0 695 -3 808 -23 945 -16
111 -73 319 -112 410 -94 223 -172 353 -310 525 -75 93 -153 173 -246 253
l-38 32 33 27 c47 39 207 200 248 252 183 227 309 475 384 753 61 225 63 269
64 1118 1 460 -3 776 -9 810 -48 266 -261 480 -529 529 -89 16 -1552 13 -1670
-4 -130 -19 -174 -26 -181 -31 -3 -2 -20 -6 -38 -9 -18 -3 -76 -19 -129 -36
-317 -101 -573 -260 -819 -507 -73 -73 -133 -129 -133 -124 0 15 -203 218
-285 284 -83 67 -199 148 -211 148 -4 0 -15 6 -23 14 -26 23 -230 121 -321
154 -109 40 -229 73 -315 87 -16 3 -55 10 -85 17 -37 7 -324 12 -865 14 -778
3 -813 2 -884 -16z m1609 -864 c256 -38 451 -136 631 -315 155 -155 246 -322
300 -551 14 -58 19 -339 7 -400 -9 -49 -16 -79 -23 -100 -3 -10 -7 -27 -9 -37
-2 -10 -13 -42 -25 -71 -143 -361 -458 -621 -830 -687 -108 -19 -297 -16 -408
5 -387 77 -702 361 -828 746 -13 40 -27 93 -30 116 -3 24 -9 57 -12 73 -6 31
-12 1202 -6 1220 4 12 1158 13 1233 1z m4010 2 c8 -10 4 -1176 -4 -1228 -28
-182 -82 -324 -182 -476 -51 -77 -203 -230 -281 -283 -129 -86 -311 -160 -436
-179 -29 -4 -122 -7 -207 -6 -133 1 -169 5 -252 27 -192 51 -358 147 -498 287
-139 139 -233 301 -286 491 -32 118 -43 359 -20 474 55 272 193 500 401 664
77 61 170 116 242 145 32 13 67 27 78 31 23 9 19 8 105 29 36 9 92 19 125 22
33 4 61 7 62 8 6 5 1149 0 1153 -6z m-2587 -2362 c30 -38 151 -162 216 -219
l43 -39 -43 -36 c-57 -49 -165 -156 -211 -211 l-36 -43 -39 43 c-57 65 -163
169 -212 211 l-43 36 43 39 c64 57 239 236 239 245 0 18 19 6 43 -26z m-1368
-709 c11 -3 40 -10 65 -16 319 -81 586 -299 725 -593 24 -52 57 -139 72 -194
25 -90 27 -115 28 -274 0 -161 -2 -183 -28 -275 -15 -55 -35 -116 -43 -135
-71 -158 -153 -278 -260 -380 -155 -147 -321 -234 -535 -281 -102 -22 -118
-23 -709 -23 l-605 -1 1 570 c0 608 3 673 34 794 49 195 138 349 285 497 165
166 351 266 580 309 67 12 344 14 390 2z m3060 0 c11 -3 40 -10 65 -16 286
-66 552 -271 704 -543 46 -83 98 -232 111 -318 3 -19 8 -47 11 -60 11 -46 10
-1229 -1 -1233 -17 -6 -1187 0 -1225 6 -254 40 -455 140 -631 316 -158 158
-248 324 -299 551 -29 128 -23 359 13 493 31 117 99 265 164 355 53 74 167
193 228 238 22 16 42 31 45 34 3 3 16 11 29 18 13 8 40 23 60 35 110 63 240
108 356 124 22 3 42 7 44 9 6 6 301 -3 326 -9z"/>
</g>
</svg>
