<svg xmlns="http://www.w3.org/2000/svg" width="48" height="48" viewBox="0 0 48 48" fill="none"><path fill="#49021F" d="M8.5 1h31C44.2 1 48 4.8 48 9.5v29.8c0 4.7-3.8 8.5-8.5 8.5h-31C3.8 47.8 0 44 0 39.3V9.5C0 4.8 3.8 1 8.5 1z"/><path fill="#F36" d="M17.44 13.24v20.52c0 .22-.1.32-.28.32h-3.92c-.18 0-.26-.1-.26-.32V13.24c0-.18.1-.26.28-.26h3.9c.12-.02.24.06.26.2.02.02.02.04.02.06zM28.96 34.4c-1.48.02-2.96-.28-4.3-.9-1.26-.58-2.3-1.54-3.02-2.72-.74-1.22-1.1-2.74-1.1-4.56-.02-1.48.36-2.94 1.1-4.22.76-1.3 1.86-2.38 3.18-3.1 1.4-.78 3.08-1.16 5.06-1.16.1 0 .24 0 .42.02s.38.02.62.04v-6.32c0-.14.06-.22.2-.22h4.06c.1-.02.18.06.2.14v19.08c0 .36.02.76.04 1.2.04.42.06.82.08 1.16 0 .14-.06.26-.2.32-1.04.44-2.14.76-3.26.96-1 .18-2.04.28-3.08.28zm1.96-4v-8.8c-.18-.04-.36-.08-.54-.1-.22-.02-.44-.04-.66-.04-.78 0-1.56.16-2.26.52-.68.34-1.26.84-1.7 1.48-.44.64-.66 1.5-.66 2.54-.02.7.1 1.4.34 2.06.2.54.5 1.02.9 1.42.38.36.84.64 1.36.8.54.18 1.1.26 1.66.26.3 0 .58-.02.84-.04.26.02.5-.02.72-.1z"/></svg>