<svg xmlns="http://www.w3.org/2000/svg" width="48" height="48" viewBox="0 0 48 48" fill="none"><path fill="#264DE4" d="M6.8517 43.2018L3 0h42.324l-3.8558 43.1949L24.1361 48 6.8517 43.2018z"/><path fill="#2965F1" d="M38.1672 40.4445l3.2952-36.9122H24.1621v40.795l14.0051-3.8828z"/><path fill="#EBEBEB" d="M11.8303 19.5553l.4748 5.2985h11.857v-5.2985H11.8303zm-.4726-5.4258h12.8044V8.831H10.876l.4817 5.2985zm12.8044 19.1866l-.0232.0062-5.901-1.5934-.3772-4.2258h-5.319l.7424 8.3194 10.8537 3.0132.0243-.0069v-5.5127z"/><path fill="#fff" d="M24.1436 19.5553v5.2985h6.5245l-.615 6.8718-5.9095 1.5949v5.5125l10.8622-3.0105.0797-.8952 1.245-13.9492.1294-1.4228.9565-10.7243H24.1436v5.2985h7.4661l-.4822 5.4258h-6.9839z"/></svg>