<svg xmlns="http://www.w3.org/2000/svg" width="48" height="48" viewBox="0 0 48 48" fill="none"><path fill="#1ABCFE" d="M24 23.9999c0-4.4182 3.5817-8 8-8 4.4182 0 8 3.5818 8 8 0 4.4183-3.5818 8-8 8-4.4183 0-8-3.5817-8-8z"/><path fill="#0ACF83" d="M8 40c0-4.4182 3.5817-8 8-8h8v8c0 4.4183-3.5817 8-8 8s-8-3.5817-8-8z"/><path fill="#FF7262" d="M24 0V16h8c4.4183 0 8-3.5816 8-7.9999s-3.5817-8-8-8h-8z"/><path fill="#F24E1E" d="M8 8c0 4.4183 3.5817 7.9999 8 7.9999h8V0h-8c-4.4183 0-8 3.5817-8 8z"/><path fill="#A259FF" d="M8 23.9999c0 4.4183 3.5817 8 8 8h8v-16h-8c-4.4183 0-8 3.5818-8 8z"/></svg>