<svg xmlns="http://www.w3.org/2000/svg" width="48" height="48" viewBox="0 0 48 48" fill="none"><path fill="#DC395F" d="M43.6487 0H4.3513C1.9482 0 0 1.9482 0 4.3513v39.2974C0 46.0518 1.9482 48 4.3513 48h39.2974C46.0518 48 48 46.0518 48 43.6487V4.3513C48 1.9482 46.0518 0 43.6487 0z"/><path fill="#fff" d="M16.0417 15.1022c1.5956 0 2.9321-1.2507 2.9321-2.8898 0-1.638-1.3365-2.8884-2.9321-2.8884-1.5957 0-2.932 1.2504-2.932 2.8884 0 1.6391 1.3363 2.8898 2.932 2.8898zm-6.08 15.4725c-.1722.7331-.2588 1.5248-.2588 2.1706 0 2.5445 1.3798 4.2338 4.3122 4.2338 2.432 0 4.4035-1.4444 5.8229-3.7762l-.8667 3.4787h4.8291l2.76-11.0698c.6898-2.8029 2.0265-4.2576 4.0534-4.2576 1.5955 0 2.5873.9922 2.5873 2.6302 0 .4747-.0433.9916-.2156 1.5523l-1.4233 5.0882c-.2156.7331-.3014 1.4667-.3014 2.156 0 2.4156 1.4225 4.1826 4.398 4.1826 2.5441 0 4.5707-1.6379 5.6919-5.562l-1.897-.7326c-.949 2.6291-1.7682 3.1044-2.4149 3.1044-.647 0-.9921-.4309-.9921-1.2929 0-.388.0866-.8188.2157-1.3373l1.3802-4.9573c.3447-1.164.4743-2.1962.4743-3.1445 0-3.7084-2.2425-5.6437-4.9591-5.6437-2.544 0-5.1314 2.2948-6.4247 4.7099l.9484-4.335H20.308l-1.0351 3.8182h3.4498l-2.1241 8.5051c-1.6684 3.7084-4.7327 3.7686-5.1173 3.6824-.6314-.1424-1.0353-.3822-1.0353-1.2027 0-.4735.0862-1.1535.3019-1.9735l3.2343-12.8295H9.7895l-1.0351 3.8182h3.4064l-2.1991 8.984"/></svg>