<svg xmlns="http://www.w3.org/2000/svg" width="48" height="48" viewBox="0 0 48 48" fill="none"><path fill="#F7DF1E" d="M48 0H0v48h48V0z"/><path fill="#000" d="M32.244 37.5002c.9669 1.5787 2.2248 2.739 4.4495 2.739 1.869 0 3.0629-.934 3.0629-2.2247 0-1.5467-1.2267-2.0945-3.2838-2.9943l-1.1276-.4838c-3.2549-1.3867-5.4172-3.1238-5.4172-6.7962 0-3.3829 2.5775-5.9581 6.6057-5.9581 2.8678 0 4.9296.9981 6.4153 3.6114l-3.5124 2.2553c-.7733-1.3867-1.6076-1.933-2.9029-1.933-1.3211 0-2.1584.8381-2.1584 1.933 0 1.3531.838 1.9009 2.7733 2.739l1.1276.4831c3.8324 1.6434 5.9962 3.3188 5.9962 7.0857 0 4.0609-3.1901 6.2857-7.4743 6.2857-4.1889 0-6.8952-1.9962-8.2194-4.6126l3.6655-2.1295zm-15.9337.3909c.7086 1.2571 1.3531 2.32 2.9028 2.32 1.482 0 2.4168-.5799 2.4168-2.8343V22.0396h4.5105v15.3981c0 4.6705-2.7383 6.7962-6.7353 6.7962-3.6114 0-5.7028-1.8689-6.7664-4.12l3.6716-2.2228z"/></svg>