<svg xmlns="http://www.w3.org/2000/svg" viewBox="0 0 108 108"><defs><style>.cls-1{fill:#1b1a1f;}.cls-2{fill:#fff;}.cls-3{fill:#f4ede9;}</style></defs><g id="Layer_2" data-name="Layer 2"><g id="Layer_1-2" data-name="Layer 1"><rect class="cls-1" width="108" height="108"/><rect class="cls-2" x="62.28" y="59.92" width="9.01" height="8.11"/><path class="cls-2" d="M55.77,48.71H47.6v-12h9.55c4,0,5,.79,5.13,4.54h9v-.45C71.29,35,70,32,66.49,30.35,64.68,29.41,62.05,29,58,29H38.59V68h9V56.38h8.17Z"/><rect class="cls-3" x="30.93" y="20.52" width="48.03" height="55.99"/><rect class="cls-1" x="62.28" y="59.92" width="9.01" height="8.11"/><path class="cls-1" d="M55.77,48.71H47.6v-12h9.55c4,0,5,.79,5.13,4.54h9v-.45C71.29,35,70,32,66.49,30.35,64.68,29.41,62.05,29,58,29H38.59V68h9V56.38h8.17Z"/><path class="cls-3" d="M35.21,81.49a1.8,1.8,0,0,0-1.57-1A1.14,1.14,0,0,0,32.4,81.7c0,1.45,3.59,1.42,3.59,3.76a2.27,2.27,0,0,1-2.48,2.22,2.85,2.85,0,0,1-2.61-1.76l.54-.41h.13a2.15,2.15,0,0,0,1.94,1.37,1.42,1.42,0,0,0,1.61-1.42c0-1.64-3.59-1.66-3.59-3.76a2,2,0,0,1,2.11-2,2.45,2.45,0,0,1,2.18,1.37l-.48.4Z"/><path class="cls-3" d="M42.2,79.92l.06.06v.63l-.06.06H38.47v2.45h2.68l.07.07v.63l-.07.06H38.47v2.85h4.12l.06.06v.63l-.06.06H37.76l-.06-.06V80l.06-.06Z"/><path class="cls-3" d="M46.17,79.92c1.57,0,2.61.82,2.61,2.21a2.1,2.1,0,0,1-1.64,2.08l2.35,3.21-.07.06h-.85l-.06-.06-2.3-3.08H45v3.08l-.06.06H44.3l-.07-.06V80l.07-.06ZM45,83.58h1.15c1.06,0,1.76-.53,1.76-1.45s-.69-1.46-1.74-1.46H45Z"/><path class="cls-3" d="M50.28,79.92l.07.06,2.55,6.46L55.46,80l.07-.06h.69l.06.06-3,7.44-.07.06h-.69l-.06-.06-3-7.44.07-.06Z"/><path class="cls-3" d="M58.3,79.92l.07.06v7.44l-.07.06h-.64l-.06-.06V80l.06-.06Z"/><path class="cls-3" d="M66.53,81.43a3.48,3.48,0,0,0-2.41-.91,3.18,3.18,0,0,0,0,6.36A3.48,3.48,0,0,0,66.53,86l.07.06v.87a3.89,3.89,0,0,1-2.48.78,4,4,0,1,1,0-8,3.78,3.78,0,0,1,2.48.78v.86Z"/><path class="cls-3" d="M72.82,79.92l.06.06v.63l-.06.06H69.09v2.45h2.68l.07.07v.63l-.07.06H69.09v2.85h4.12l.06.06v.63l-.06.06H68.38l-.06-.06V80l.06-.06Z"/><path class="cls-3" d="M78.11,81.49a1.77,1.77,0,0,0-1.56-1,1.14,1.14,0,0,0-1.24,1.18c0,1.45,3.59,1.42,3.59,3.76a2.27,2.27,0,0,1-2.48,2.22,2.84,2.84,0,0,1-2.61-1.76l.53-.41h.13a2.16,2.16,0,0,0,2,1.37A1.41,1.41,0,0,0,78,85.46c0-1.64-3.59-1.66-3.59-3.76a2,2,0,0,1,2.12-2,2.46,2.46,0,0,1,2.18,1.37l-.49.4Z"/></g></g></svg>