<svg width="54" height="54" viewBox="0 0 54 54" fill="none" class="stroke-current text-blueGray-900" xmlns="http://www.w3.org/2000/svg">
<path d="M3 7C3 4.79086 4.79086 3 7 3H15C21.6274 3 27 8.37258 27 15V15C27 21.6274 21.6274 27 15 27V27C8.37258 27 3 21.6274 3 15V7Z" stroke-width="5"/>
<path d="M3 39C3 32.3726 8.37258 27 15 27V27C21.6274 27 27 32.3726 27 39V39C27 45.6274 21.6274 51 15 51H7C4.79086 51 3 49.2091 3 47V39Z" stroke-width="5"/>
<path d="M27 15C27 8.37258 32.3726 3 39 3H47C49.2091 3 51 4.79086 51 7V15C51 21.6274 45.6274 27 39 27V27C32.3726 27 27 21.6274 27 15V15Z" stroke-width="5"/>
<path d="M27 39C27 32.3726 32.3726 27 39 27V27C45.6274 27 51 32.3726 51 39V47C51 49.2091 49.2091 51 47 51H39C32.3726 51 27 45.6274 27 39V39Z" stroke-width="5"/>
</svg>
