<svg width="48" height="48" viewBox="0 0 48 48" fill="none" xmlns="http://www.w3.org/2000/svg">
<path d="M4.33333 2H13C19.0751 2 24 6.92487 24 13C24 19.0751 19.0751 24 13 24C6.92487 24 2 19.0751 2 13V4.33333C2 3.04467 3.04467 2 4.33333 2Z" stroke="currentColor" stroke-width="4"/>
<path d="M13 46H4.33333C3.04467 46 2 44.9553 2 43.6667V35C2 28.9249 6.92487 24 13 24C19.0751 24 24 28.9249 24 35C24 41.0751 19.0751 46 13 46Z" stroke="currentColor" stroke-width="4"/>
<path d="M35 2H43.6667C44.9553 2 46 3.04467 46 4.33333V13C46 19.0751 41.0751 24 35 24C28.9249 24 24 19.0751 24 13C24 6.92487 28.9249 2 35 2Z" stroke="currentColor" stroke-width="4"/>
<path d="M46 35V43.6667C46 44.9553 44.9553 46 43.6667 46H35C28.9249 46 24 41.0751 24 35C24 28.9249 28.9249 24 35 24C41.0751 24 46 28.9249 46 35Z" stroke="currentColor" stroke-width="4"/>
</svg>